# xmcd
#
# Track frame offsets: 
#        150
#        6900
#        21417
#        40767
#        53817
#        73510
#        90310
#        113977
#        127027
#        136631
#        151781
#        168481
#        181531
#        196981
#        213181
#        230581
#        244381
#        259990
#        274990
#        294490
#
# Disc length: 4192 seconds
#
# Revision: 0
# Processed by: cddbd v1.5.2PL0 Copyright (c) Steve Scherf et al.
# Submitted via: ExactAudioCopy v0.99pb5
#
DISCID=18105e14
DTITLE=Various Artist - Turku 201: Symposium
DYEAR=2009
DGENRE=Rap
TTITLE0=Symposium - Intro
TTITLE1=Kalmiston Jormas - Narri
TTITLE2=Isimasa - Clara&Josefina
TTITLE3=Helppo J - Musta ori
TTITLE4=Kirby - Setä on vähän väsynyt (feat. Isä-Nitro)
TTITLE5=Sakea - Elämän palo
TTITLE6=TKUG (Isimasa, Hot´n´ Totti, Kirby) - Hei vaimo
TTITLE7=Vieläki Lepposaa - Mikki kiertää (feat. Haamu)
TTITLE8=Olavi vola - Skit
TTITLE9=Kalmiston Jormas - Tasapuolist mielivaltaa
TTITLE10=L0ja - Ptyalismi2009
TTITLE11=Dani Cooper, S-Molli, Lime - Lepoo
TTITLE12=Jimisetä - Yksinpuhalteluu
TTITLE13=Basick - Unique Technique
TTITLE14=Gummisetä - Hölkynkölkyn pölkyllä (feat. Isimasa)
TTITLE15=Katujen laki - Likapyykkii
TTITLE16=AKA - Piruvie
TTITLE17=Heimo AK - Vastaa päivä
TTITLE18=Kalmiston Jormas - Hyvää (feat. Lempi Joe)
TTITLE19=Chyde, Isimasa, Hot´n´ totti, Kirby - Jos mä oisin mä
EXTD=
EXTT0=
EXTT1=
EXTT2=
EXTT3=
EXTT4=
EXTT5=
EXTT6=
EXTT7=
EXTT8=
EXTT9=
EXTT10=
EXTT11=
EXTT12=
EXTT13=
EXTT14=
EXTT15=
EXTT16=
EXTT17=
EXTT18=
EXTT19=
PLAYORDER=
